<svg width="16" height="16" viewBox="0 0 16 16" fill="none" xmlns="http://www.w3.org/2000/svg">
  <path d="M8 0C3.58 0 0 3.58 0 8c0 3.54 2.29 6.54 5.47 7.59.4.07.55-.17.55-.38 0-.19-.01-.74-.01-1.45-2.02.44-2.45-.49-2.45-.49-.33-.84-.81-1.07-.81-1.07-.66-.45.05-.44.05-.44.73.05 1.12.75 1.12.75.65 1.1 1.71.78 2.12.6.07-.47.25-.78.45-.96-1.55-.18-3.18-.77-3.18-3.43 0-.76.27-1.38.71-1.87-.07-.18-.31-.91.07-1.89 0 0 .58-.19 1.88.73a6.55 6.55 0 0 1 1.71-.23c.58.03 1.17.08 1.71.23 1.3-.92 1.88-.73 1.88-.73.38.98.14 1.71.07 1.89.44.49.71 1.11.71 1.87 0 2.67-1.63 3.25-3.18 3.43.26.23.49.68.49 1.37 0 .99-.01 1.79-.01 2.03 0 .21.15.46.56.38C13.71 14.54 16 11.54 16 8c0-4.42-3.58-8-8-8z" fill="white"/>
</svg>
