<svg width="16" height="16" viewBox="0 0 16 16" fill="none" xmlns="http://www.w3.org/2000/svg">
  <path d="M11.267 8.935L10.25 9.953C10.141 10.062 10.054 10.15 9.951 10.25L8.766 11.435C8.35 12.019 7.633 12.073 7.058 11.57L5.877 10.389C5.326 9.851 5.019 9.038 5.136 8.265L5.365 7.004C5.438 6.559 5.96 6.148 6.285 6.32L7.524 7.559C7.797 7.806 8.187 7.934 8.632 7.934C8.947 7.934 9.297 7.734 9.471 7.563C9.905 7.129 10.558 6.811 11.23 7.147C11.967 7.51 12.427 8.101 12.832 8.918C13.236 9.736 12.833 10.679 12.244 10.974C11.655 11.269 11.262 11.861 11.267 12.677C11.274 13.628 11.33 14.581 11.465 15.56C11.573 16.176 11.13 16.817 10.647 17.082C10.164 17.347 9.568 17.138 9.128 16.487C8.688 15.837 8.888 15.047 9.234 14.626C9.58 14.205 10.49 14.016 10.246 13.545C10.004 13.081 9.475 13.194 9.145 12.963C8.63 12.682 8.521 11.797 9.057 11.24C9.375 10.916 9.5 10.5 10.206 10.152C10.647 9.97 11.267 9.746 11.267 8.935Z" fill="white"/>
</svg>
